<svg width="189" height="80" viewBox="0 0 189 80" fill="none" xmlns="http://www.w3.org/2000/svg">
<path d="M0 2.14895e-05L46.0071 2.14895e-05C48.8327 0.000107314 49.9998 1.53879 49.9998 3.57142C49.9998 5.60405 49.9998 7.14282 49.9998 7.14282L0 7.14282L0 2.14895e-05Z" fill="#E63946"/>
<path d="M2.14895e-05 0.259766L2.14895e-05 46.0279C0.000107314 48.8388 1.53879 49.9998 3.57142 49.9998C5.60405 49.9998 7.14282 49.9998 7.14282 49.9998V0.259766L2.14895e-05 0.259766Z" fill="#E63946"/>
<rect y="28.5713" width="35.7141" height="7.14282" fill="#E63946"/>
<rect x="14.2852" y="14.2852" width="35.7141" height="7.14282" fill="#E63946"/>
<rect x="43" y="41.5791" width="26.0798" height="6.99997" transform="rotate(-90 43 41.5791)" fill="#E63946"/>
<rect x="8.44141" y="42.8564" width="41.5582" height="7.14282" fill="#E63946"/>
<path d="M72.2891 45.0781V14H76.6484V50H72.6641L72.2891 45.0781ZM55.2266 37.6016V37.1094C55.2266 35.1719 55.4609 33.4141 55.9297 31.8359C56.4141 30.2422 57.0938 28.875 57.9688 27.7344C58.8594 26.5938 59.9141 25.7188 61.1328 25.1094C62.3672 24.4844 63.7422 24.1719 65.2578 24.1719C66.8516 24.1719 68.2422 24.4531 69.4297 25.0156C70.6328 25.5625 71.6484 26.3672 72.4766 27.4297C73.3203 28.4766 73.9844 29.7422 74.4688 31.2266C74.9531 32.7109 75.2891 34.3906 75.4766 36.2656V38.4219C75.3047 40.2812 74.9688 41.9531 74.4688 43.4375C73.9844 44.9219 73.3203 46.1875 72.4766 47.2344C71.6484 48.2812 70.6328 49.0859 69.4297 49.6484C68.2266 50.1953 66.8203 50.4688 65.2109 50.4688C63.7266 50.4688 62.3672 50.1484 61.1328 49.5078C59.9141 48.8672 58.8594 47.9688 57.9688 46.8125C57.0938 45.6562 56.4141 44.2969 55.9297 42.7344C55.4609 41.1562 55.2266 39.4453 55.2266 37.6016ZM59.5859 37.1094V37.6016C59.5859 38.8672 59.7109 40.0547 59.9609 41.1641C60.2266 42.2734 60.6328 43.25 61.1797 44.0938C61.7266 44.9375 62.4219 45.6016 63.2656 46.0859C64.1094 46.5547 65.1172 46.7891 66.2891 46.7891C67.7266 46.7891 68.9062 46.4844 69.8281 45.875C70.7656 45.2656 71.5156 44.4609 72.0781 43.4609C72.6406 42.4609 73.0781 41.375 73.3906 40.2031V34.5547C73.2031 33.6953 72.9297 32.8672 72.5703 32.0703C72.2266 31.2578 71.7734 30.5391 71.2109 29.9141C70.6641 29.2734 69.9844 28.7656 69.1719 28.3906C68.375 28.0156 67.4297 27.8281 66.3359 27.8281C65.1484 27.8281 64.125 28.0781 63.2656 28.5781C62.4219 29.0625 61.7266 29.7344 61.1797 30.5938C60.6328 31.4375 60.2266 32.4219 59.9609 33.5469C59.7109 34.6562 59.5859 35.8438 59.5859 37.1094ZM99.8281 24.6406H103.766V49.4609C103.766 51.6953 103.312 53.6016 102.406 55.1797C101.5 56.7578 100.234 57.9531 98.6094 58.7656C97 59.5938 95.1406 60.0078 93.0312 60.0078C92.1562 60.0078 91.125 59.8672 89.9375 59.5859C88.7656 59.3203 87.6094 58.8594 86.4688 58.2031C85.3438 57.5625 84.3984 56.6953 83.6328 55.6016L85.9062 53.0234C86.9688 54.3047 88.0781 55.1953 89.2344 55.6953C90.4062 56.1953 91.5625 56.4453 92.7031 56.4453C94.0781 56.4453 95.2656 56.1875 96.2656 55.6719C97.2656 55.1562 98.0391 54.3906 98.5859 53.375C99.1484 52.375 99.4297 51.1406 99.4297 49.6719V30.2188L99.8281 24.6406ZM82.3672 37.6016V37.1094C82.3672 35.1719 82.5938 33.4141 83.0469 31.8359C83.5156 30.2422 84.1797 28.875 85.0391 27.7344C85.9141 26.5938 86.9688 25.7188 88.2031 25.1094C89.4375 24.4844 90.8281 24.1719 92.375 24.1719C93.9688 24.1719 95.3594 24.4531 96.5469 25.0156C97.75 25.5625 98.7656 26.3672 99.5938 27.4297C100.438 28.4766 101.102 29.7422 101.586 31.2266C102.07 32.7109 102.406 34.3906 102.594 36.2656V38.4219C102.422 40.2812 102.086 41.9531 101.586 43.4375C101.102 44.9219 100.438 46.1875 99.5938 47.2344C98.7656 48.2812 97.75 49.0859 96.5469 49.6484C95.3438 50.1953 93.9375 50.4688 92.3281 50.4688C90.8125 50.4688 89.4375 50.1484 88.2031 49.5078C86.9844 48.8672 85.9375 47.9688 85.0625 46.8125C84.1875 45.6562 83.5156 44.2969 83.0469 42.7344C82.5938 41.1562 82.3672 39.4453 82.3672 37.6016ZM86.7031 37.1094V37.6016C86.7031 38.8672 86.8281 40.0547 87.0781 41.1641C87.3438 42.2734 87.7422 43.25 88.2734 44.0938C88.8203 44.9375 89.5156 45.6016 90.3594 46.0859C91.2031 46.5547 92.2109 46.7891 93.3828 46.7891C94.8203 46.7891 96.0078 46.4844 96.9453 45.875C97.8828 45.2656 98.625 44.4609 99.1719 43.4609C99.7344 42.4609 100.172 41.375 100.484 40.2031V34.5547C100.312 33.6953 100.047 32.8672 99.6875 32.0703C99.3438 31.2578 98.8906 30.5391 98.3281 29.9141C97.7812 29.2734 97.1016 28.7656 96.2891 28.3906C95.4766 28.0156 94.5234 27.8281 93.4297 27.8281C92.2422 27.8281 91.2188 28.0781 90.3594 28.5781C89.5156 29.0625 88.8203 29.7344 88.2734 30.5938C87.7422 31.4375 87.3438 32.4219 87.0781 33.5469C86.8281 34.6562 86.7031 35.8438 86.7031 37.1094ZM120.875 50.4688C119.109 50.4688 117.508 50.1719 116.07 49.5781C114.648 48.9688 113.422 48.1172 112.391 47.0234C111.375 45.9297 110.594 44.6328 110.047 43.1328C109.5 41.6328 109.227 39.9922 109.227 38.2109V37.2266C109.227 35.1641 109.531 33.3281 110.141 31.7188C110.75 30.0938 111.578 28.7188 112.625 27.5938C113.672 26.4688 114.859 25.6172 116.188 25.0391C117.516 24.4609 118.891 24.1719 120.312 24.1719C122.125 24.1719 123.688 24.4844 125 25.1094C126.328 25.7344 127.414 26.6094 128.258 27.7344C129.102 28.8438 129.727 30.1562 130.133 31.6719C130.539 33.1719 130.742 34.8125 130.742 36.5938V38.5391H111.805V35H126.406V34.6719C126.344 33.5469 126.109 32.4531 125.703 31.3906C125.312 30.3281 124.688 29.4531 123.828 28.7656C122.969 28.0781 121.797 27.7344 120.312 27.7344C119.328 27.7344 118.422 27.9453 117.594 28.3672C116.766 28.7734 116.055 29.3828 115.461 30.1953C114.867 31.0078 114.406 32 114.078 33.1719C113.75 34.3438 113.586 35.6953 113.586 37.2266V38.2109C113.586 39.4141 113.75 40.5469 114.078 41.6094C114.422 42.6562 114.914 43.5781 115.555 44.375C116.211 45.1719 117 45.7969 117.922 46.25C118.859 46.7031 119.922 46.9297 121.109 46.9297C122.641 46.9297 123.938 46.6172 125 45.9922C126.062 45.3672 126.992 44.5312 127.789 43.4844L130.414 45.5703C129.867 46.3984 129.172 47.1875 128.328 47.9375C127.484 48.6875 126.445 49.2969 125.211 49.7656C123.992 50.2344 122.547 50.4688 120.875 50.4688ZM140.984 15.875V50H136.461V15.875H140.984ZM155.281 31.2266V34.9297H140V31.2266H155.281ZM157.602 15.875V19.5781H140V15.875H157.602ZM181.18 41.375C181.18 40.5781 181.055 39.875 180.805 39.2656C180.57 38.6406 180.148 38.0781 179.539 37.5781C178.945 37.0781 178.117 36.6016 177.055 36.1484C176.008 35.6953 174.68 35.2344 173.07 34.7656C171.383 34.2656 169.859 33.7109 168.5 33.1016C167.141 32.4766 165.977 31.7656 165.008 30.9688C164.039 30.1719 163.297 29.2578 162.781 28.2266C162.266 27.1953 162.008 26.0156 162.008 24.6875C162.008 23.3594 162.281 22.1328 162.828 21.0078C163.375 19.8828 164.156 18.9062 165.172 18.0781C166.203 17.2344 167.43 16.5781 168.852 16.1094C170.273 15.6406 171.859 15.4062 173.609 15.4062C176.172 15.4062 178.344 15.8984 180.125 16.8828C181.922 17.8516 183.289 19.125 184.227 20.7031C185.164 22.2656 185.633 23.9375 185.633 25.7188H181.133C181.133 24.4375 180.859 23.3047 180.312 22.3203C179.766 21.3203 178.938 20.5391 177.828 19.9766C176.719 19.3984 175.312 19.1094 173.609 19.1094C172 19.1094 170.672 19.3516 169.625 19.8359C168.578 20.3203 167.797 20.9766 167.281 21.8047C166.781 22.6328 166.531 23.5781 166.531 24.6406C166.531 25.3594 166.68 26.0156 166.977 26.6094C167.289 27.1875 167.766 27.7266 168.406 28.2266C169.062 28.7266 169.891 29.1875 170.891 29.6094C171.906 30.0312 173.117 30.4375 174.523 30.8281C176.461 31.375 178.133 31.9844 179.539 32.6562C180.945 33.3281 182.102 34.0859 183.008 34.9297C183.93 35.7578 184.609 36.7031 185.047 37.7656C185.5 38.8125 185.727 40 185.727 41.3281C185.727 42.7188 185.445 43.9766 184.883 45.1016C184.32 46.2266 183.516 47.1875 182.469 47.9844C181.422 48.7812 180.164 49.3984 178.695 49.8359C177.242 50.2578 175.617 50.4688 173.82 50.4688C172.242 50.4688 170.688 50.25 169.156 49.8125C167.641 49.375 166.258 48.7188 165.008 47.8438C163.773 46.9688 162.781 45.8906 162.031 44.6094C161.297 43.3125 160.93 41.8125 160.93 40.1094H165.43C165.43 41.2812 165.656 42.2891 166.109 43.1328C166.562 43.9609 167.18 44.6484 167.961 45.1953C168.758 45.7422 169.656 46.1484 170.656 46.4141C171.672 46.6641 172.727 46.7891 173.82 46.7891C175.398 46.7891 176.734 46.5703 177.828 46.1328C178.922 45.6953 179.75 45.0703 180.312 44.2578C180.891 43.4453 181.18 42.4844 181.18 41.375Z" fill="#0FA3B1"/>
<path d="M94.4746 67.0469V77H93.1553V67.0469H94.4746ZM98.6445 71.5244V72.6045H94.1875V71.5244H98.6445ZM99.3213 67.0469V68.127H94.1875V67.0469H99.3213ZM155.827 74.4844C155.827 74.252 155.791 74.0469 155.718 73.8691C155.649 73.6868 155.526 73.5228 155.349 73.377C155.175 73.2311 154.934 73.0921 154.624 72.96C154.319 72.8278 153.931 72.6934 153.462 72.5566C152.97 72.4108 152.525 72.249 152.129 72.0713C151.732 71.889 151.393 71.6816 151.11 71.4492C150.828 71.2168 150.611 70.9502 150.461 70.6494C150.311 70.3486 150.235 70.0046 150.235 69.6172C150.235 69.2298 150.315 68.8721 150.475 68.5439C150.634 68.2158 150.862 67.931 151.158 67.6895C151.459 67.4434 151.817 67.252 152.231 67.1152C152.646 66.9785 153.109 66.9102 153.619 66.9102C154.367 66.9102 155 67.0537 155.52 67.3408C156.044 67.6234 156.442 67.9948 156.716 68.4551C156.989 68.9108 157.126 69.3984 157.126 69.918H155.813C155.813 69.5443 155.734 69.2139 155.574 68.9268C155.415 68.6351 155.173 68.4072 154.85 68.2432C154.526 68.0745 154.116 67.9902 153.619 67.9902C153.15 67.9902 152.762 68.0609 152.457 68.2021C152.152 68.3434 151.924 68.5348 151.773 68.7764C151.628 69.0179 151.555 69.2936 151.555 69.6035C151.555 69.8132 151.598 70.0046 151.685 70.1777C151.776 70.3464 151.915 70.5036 152.102 70.6494C152.293 70.7952 152.535 70.9297 152.826 71.0527C153.122 71.1758 153.476 71.2943 153.886 71.4082C154.451 71.5677 154.938 71.7454 155.349 71.9414C155.759 72.1374 156.096 72.3584 156.36 72.6045C156.629 72.846 156.827 73.1217 156.955 73.4316C157.087 73.737 157.153 74.0833 157.153 74.4707C157.153 74.8763 157.071 75.2432 156.907 75.5713C156.743 75.8994 156.508 76.1797 156.203 76.4121C155.898 76.6445 155.531 76.8245 155.103 76.9521C154.679 77.0752 154.205 77.1367 153.681 77.1367C153.22 77.1367 152.767 77.0729 152.32 76.9453C151.878 76.8177 151.475 76.6263 151.11 76.3711C150.75 76.1159 150.461 75.8014 150.242 75.4277C150.028 75.0495 149.921 74.612 149.921 74.1152H151.233C151.233 74.457 151.299 74.751 151.432 74.9971C151.564 75.2386 151.744 75.4391 151.972 75.5986C152.204 75.7581 152.466 75.8766 152.758 75.9541C153.054 76.027 153.362 76.0635 153.681 76.0635C154.141 76.0635 154.531 75.9997 154.85 75.8721C155.169 75.7445 155.41 75.5622 155.574 75.3252C155.743 75.0882 155.827 74.8079 155.827 74.4844Z" fill="#E63946"/>
<path d="M105.063 75.7354V71.9277C105.063 71.6361 105.004 71.3831 104.886 71.1689C104.772 70.9502 104.599 70.7816 104.366 70.6631C104.134 70.5446 103.847 70.4854 103.505 70.4854C103.186 70.4854 102.906 70.54 102.664 70.6494C102.427 70.7588 102.24 70.9023 102.104 71.0801C101.971 71.2578 101.905 71.4492 101.905 71.6543H100.641C100.641 71.39 100.709 71.1279 100.846 70.8682C100.982 70.6084 101.178 70.3737 101.434 70.1641C101.693 69.9499 102.003 69.7812 102.363 69.6582C102.728 69.5306 103.133 69.4668 103.58 69.4668C104.118 69.4668 104.592 69.5579 105.002 69.7402C105.417 69.9225 105.74 70.1982 105.973 70.5674C106.21 70.932 106.328 71.39 106.328 71.9414V75.3867C106.328 75.6328 106.349 75.8949 106.39 76.1729C106.435 76.4508 106.501 76.6901 106.588 76.8906V77H105.269C105.205 76.8542 105.155 76.6605 105.118 76.4189C105.082 76.1729 105.063 75.945 105.063 75.7354ZM105.282 72.5156L105.296 73.4043H104.018C103.658 73.4043 103.336 73.4339 103.054 73.4932C102.771 73.5479 102.534 73.6322 102.343 73.7461C102.151 73.86 102.006 74.0036 101.905 74.1768C101.805 74.3454 101.755 74.5436 101.755 74.7715C101.755 75.0039 101.807 75.2158 101.912 75.4072C102.017 75.5986 102.174 75.7513 102.384 75.8652C102.598 75.9746 102.86 76.0293 103.17 76.0293C103.557 76.0293 103.899 75.9473 104.195 75.7832C104.492 75.6191 104.726 75.4186 104.899 75.1816C105.077 74.9447 105.173 74.7145 105.187 74.4912L105.727 75.0996C105.695 75.291 105.608 75.5029 105.467 75.7354C105.326 75.9678 105.136 76.1911 104.899 76.4053C104.667 76.6149 104.389 76.7904 104.065 76.9316C103.746 77.0684 103.386 77.1367 102.985 77.1367C102.484 77.1367 102.044 77.0387 101.666 76.8428C101.292 76.6468 101.001 76.3848 100.791 76.0566C100.586 75.724 100.483 75.3525 100.483 74.9424C100.483 74.5459 100.561 74.1973 100.716 73.8965C100.871 73.5911 101.094 73.3382 101.386 73.1377C101.677 72.9326 102.028 72.7777 102.438 72.6729C102.849 72.568 103.307 72.5156 103.812 72.5156H105.282ZM112.624 75.0381C112.624 74.8558 112.583 74.6872 112.501 74.5322C112.424 74.3727 112.262 74.2292 112.016 74.1016C111.774 73.9694 111.41 73.8555 110.922 73.7598C110.512 73.6732 110.14 73.5706 109.808 73.4521C109.479 73.3337 109.199 73.1901 108.967 73.0215C108.739 72.8529 108.563 72.6546 108.44 72.4268C108.317 72.1989 108.256 71.9323 108.256 71.627C108.256 71.3353 108.32 71.0596 108.447 70.7998C108.579 70.54 108.764 70.3099 109.001 70.1094C109.243 69.9089 109.532 69.7516 109.869 69.6377C110.206 69.5238 110.582 69.4668 110.997 69.4668C111.59 69.4668 112.095 69.5716 112.515 69.7812C112.934 69.9909 113.255 70.2712 113.479 70.6221C113.702 70.9684 113.813 71.3535 113.813 71.7773H112.549C112.549 71.5723 112.487 71.374 112.364 71.1826C112.246 70.9867 112.07 70.8249 111.838 70.6973C111.61 70.5697 111.33 70.5059 110.997 70.5059C110.646 70.5059 110.361 70.5605 110.143 70.6699C109.928 70.7747 109.771 70.9092 109.671 71.0732C109.575 71.2373 109.527 71.4105 109.527 71.5928C109.527 71.7295 109.55 71.8525 109.596 71.9619C109.646 72.0667 109.732 72.1647 109.855 72.2559C109.979 72.3424 110.152 72.4245 110.375 72.502C110.598 72.5794 110.883 72.6569 111.229 72.7344C111.836 72.8711 112.335 73.0352 112.727 73.2266C113.118 73.418 113.41 73.6527 113.602 73.9307C113.793 74.2087 113.889 74.5459 113.889 74.9424C113.889 75.266 113.82 75.5622 113.684 75.8311C113.551 76.0999 113.358 76.3324 113.103 76.5283C112.852 76.7197 112.551 76.8701 112.2 76.9795C111.854 77.0843 111.464 77.1367 111.031 77.1367C110.38 77.1367 109.828 77.0205 109.377 76.7881C108.926 76.5557 108.584 76.2549 108.352 75.8857C108.119 75.5166 108.003 75.127 108.003 74.7168H109.274C109.293 75.0632 109.393 75.3389 109.575 75.5439C109.757 75.7445 109.981 75.888 110.245 75.9746C110.509 76.0566 110.771 76.0977 111.031 76.0977C111.378 76.0977 111.667 76.0521 111.899 75.9609C112.136 75.8698 112.316 75.7445 112.439 75.585C112.562 75.4255 112.624 75.2432 112.624 75.0381ZM118.646 69.6035V70.5742H114.647V69.6035H118.646ZM116.001 67.8057H117.266V75.168C117.266 75.4186 117.304 75.6077 117.382 75.7354C117.459 75.863 117.56 75.9473 117.683 75.9883C117.806 76.0293 117.938 76.0498 118.079 76.0498C118.184 76.0498 118.293 76.0407 118.407 76.0225C118.526 75.9997 118.615 75.9814 118.674 75.9678L118.681 77C118.58 77.0319 118.448 77.0615 118.284 77.0889C118.125 77.1208 117.931 77.1367 117.703 77.1367C117.393 77.1367 117.108 77.0752 116.849 76.9521C116.589 76.8291 116.382 76.624 116.227 76.3369C116.076 76.0452 116.001 75.6533 116.001 75.1611V67.8057ZM127.964 75.7354V71.9277C127.964 71.6361 127.905 71.3831 127.786 71.1689C127.672 70.9502 127.499 70.7816 127.267 70.6631C127.034 70.5446 126.747 70.4854 126.405 70.4854C126.086 70.4854 125.806 70.54 125.564 70.6494C125.327 70.7588 125.141 70.9023 125.004 71.0801C124.872 71.2578 124.806 71.4492 124.806 71.6543H123.541C123.541 71.39 123.609 71.1279 123.746 70.8682C123.883 70.6084 124.079 70.3737 124.334 70.1641C124.594 69.9499 124.904 69.7812 125.264 69.6582C125.628 69.5306 126.034 69.4668 126.48 69.4668C127.018 69.4668 127.492 69.5579 127.902 69.7402C128.317 69.9225 128.641 70.1982 128.873 70.5674C129.11 70.932 129.229 71.39 129.229 71.9414V75.3867C129.229 75.6328 129.249 75.8949 129.29 76.1729C129.336 76.4508 129.402 76.6901 129.488 76.8906V77H128.169C128.105 76.8542 128.055 76.6605 128.019 76.4189C127.982 76.1729 127.964 75.945 127.964 75.7354ZM128.183 72.5156L128.196 73.4043H126.918C126.558 73.4043 126.237 73.4339 125.954 73.4932C125.672 73.5479 125.435 73.6322 125.243 73.7461C125.052 73.86 124.906 74.0036 124.806 74.1768C124.705 74.3454 124.655 74.5436 124.655 74.7715C124.655 75.0039 124.708 75.2158 124.812 75.4072C124.917 75.5986 125.075 75.7513 125.284 75.8652C125.498 75.9746 125.76 76.0293 126.07 76.0293C126.458 76.0293 126.799 75.9473 127.096 75.7832C127.392 75.6191 127.627 75.4186 127.8 75.1816C127.978 74.9447 128.073 74.7145 128.087 74.4912L128.627 75.0996C128.595 75.291 128.508 75.5029 128.367 75.7354C128.226 75.9678 128.037 76.1911 127.8 76.4053C127.567 76.6149 127.289 76.7904 126.966 76.9316C126.647 77.0684 126.287 77.1367 125.886 77.1367C125.384 77.1367 124.945 77.0387 124.566 76.8428C124.193 76.6468 123.901 76.3848 123.691 76.0566C123.486 75.724 123.384 75.3525 123.384 74.9424C123.384 74.5459 123.461 74.1973 123.616 73.8965C123.771 73.5911 123.994 73.3382 124.286 73.1377C124.578 72.9326 124.929 72.7777 125.339 72.6729C125.749 72.568 126.207 72.5156 126.713 72.5156H128.183ZM132.482 71.1826V77H131.218V69.6035H132.414L132.482 71.1826ZM132.182 73.0215L131.655 73.001C131.66 72.4951 131.735 72.028 131.881 71.5996C132.027 71.1667 132.232 70.7907 132.496 70.4717C132.76 70.1527 133.075 69.9066 133.439 69.7334C133.809 69.5557 134.216 69.4668 134.663 69.4668C135.028 69.4668 135.356 69.5169 135.647 69.6172C135.939 69.7129 136.188 69.8678 136.393 70.082C136.602 70.2962 136.762 70.5742 136.871 70.916C136.98 71.2533 137.035 71.6657 137.035 72.1533V77H135.764V72.1396C135.764 71.7523 135.707 71.4424 135.593 71.21C135.479 70.973 135.312 70.8021 135.094 70.6973C134.875 70.5879 134.606 70.5332 134.287 70.5332C133.973 70.5332 133.686 70.5993 133.426 70.7314C133.171 70.8636 132.95 71.0459 132.763 71.2783C132.58 71.5107 132.437 71.7773 132.332 72.0781C132.232 72.3743 132.182 72.6888 132.182 73.0215ZM143.618 75.5645V66.5H144.89V77H143.728L143.618 75.5645ZM138.642 73.3838V73.2402C138.642 72.6751 138.71 72.1624 138.847 71.7021C138.988 71.2373 139.186 70.8385 139.441 70.5059C139.701 70.1732 140.009 69.918 140.364 69.7402C140.724 69.5579 141.125 69.4668 141.567 69.4668C142.032 69.4668 142.438 69.5488 142.784 69.7129C143.135 69.8724 143.431 70.1071 143.673 70.417C143.919 70.7223 144.113 71.0915 144.254 71.5244C144.395 71.9574 144.493 72.4473 144.548 72.9941V73.623C144.498 74.1654 144.4 74.653 144.254 75.0859C144.113 75.5189 143.919 75.888 143.673 76.1934C143.431 76.4987 143.135 76.7334 142.784 76.8975C142.433 77.057 142.023 77.1367 141.554 77.1367C141.121 77.1367 140.724 77.0433 140.364 76.8564C140.009 76.6696 139.701 76.4076 139.441 76.0703C139.186 75.7331 138.988 75.3366 138.847 74.8809C138.71 74.4206 138.642 73.9215 138.642 73.3838ZM139.913 73.2402V73.3838C139.913 73.7529 139.95 74.0993 140.022 74.4229C140.1 74.7464 140.218 75.0312 140.378 75.2773C140.537 75.5234 140.74 75.7171 140.986 75.8584C141.232 75.9951 141.526 76.0635 141.868 76.0635C142.287 76.0635 142.632 75.9746 142.9 75.7969C143.174 75.6191 143.393 75.3844 143.557 75.0928C143.721 74.8011 143.848 74.4844 143.939 74.1426V72.4951C143.885 72.2445 143.805 72.0029 143.7 71.7705C143.6 71.5335 143.468 71.3239 143.304 71.1416C143.144 70.9548 142.946 70.8066 142.709 70.6973C142.477 70.5879 142.201 70.5332 141.882 70.5332C141.535 70.5332 141.237 70.6061 140.986 70.752C140.74 70.8932 140.537 71.0892 140.378 71.3398C140.218 71.5859 140.1 71.873 140.022 72.2012C139.95 72.5247 139.913 72.8711 139.913 73.2402ZM161.74 69.6035V70.5742H157.741V69.6035H161.74ZM159.095 67.8057H160.359V75.168C160.359 75.4186 160.398 75.6077 160.476 75.7354C160.553 75.863 160.653 75.9473 160.776 75.9883C160.899 76.0293 161.032 76.0498 161.173 76.0498C161.278 76.0498 161.387 76.0407 161.501 76.0225C161.619 75.9997 161.708 75.9814 161.768 75.9678L161.774 77C161.674 77.0319 161.542 77.0615 161.378 77.0889C161.218 77.1208 161.025 77.1367 160.797 77.1367C160.487 77.1367 160.202 77.0752 159.942 76.9521C159.683 76.8291 159.475 76.624 159.32 76.3369C159.17 76.0452 159.095 75.6533 159.095 75.1611V67.8057ZM167.585 75.7354V71.9277C167.585 71.6361 167.526 71.3831 167.407 71.1689C167.293 70.9502 167.12 70.7816 166.888 70.6631C166.655 70.5446 166.368 70.4854 166.026 70.4854C165.707 70.4854 165.427 70.54 165.186 70.6494C164.949 70.7588 164.762 70.9023 164.625 71.0801C164.493 71.2578 164.427 71.4492 164.427 71.6543H163.162C163.162 71.39 163.23 71.1279 163.367 70.8682C163.504 70.6084 163.7 70.3737 163.955 70.1641C164.215 69.9499 164.525 69.7812 164.885 69.6582C165.249 69.5306 165.655 69.4668 166.102 69.4668C166.639 69.4668 167.113 69.5579 167.523 69.7402C167.938 69.9225 168.262 70.1982 168.494 70.5674C168.731 70.932 168.85 71.39 168.85 71.9414V75.3867C168.85 75.6328 168.87 75.8949 168.911 76.1729C168.957 76.4508 169.023 76.6901 169.109 76.8906V77H167.79C167.726 76.8542 167.676 76.6605 167.64 76.4189C167.603 76.1729 167.585 75.945 167.585 75.7354ZM167.804 72.5156L167.817 73.4043H166.539C166.179 73.4043 165.858 73.4339 165.575 73.4932C165.293 73.5479 165.056 73.6322 164.864 73.7461C164.673 73.86 164.527 74.0036 164.427 74.1768C164.326 74.3454 164.276 74.5436 164.276 74.7715C164.276 75.0039 164.329 75.2158 164.434 75.4072C164.538 75.5986 164.696 75.7513 164.905 75.8652C165.119 75.9746 165.382 76.0293 165.691 76.0293C166.079 76.0293 166.421 75.9473 166.717 75.7832C167.013 75.6191 167.248 75.4186 167.421 75.1816C167.599 74.9447 167.694 74.7145 167.708 74.4912L168.248 75.0996C168.216 75.291 168.13 75.5029 167.988 75.7354C167.847 75.9678 167.658 76.1911 167.421 76.4053C167.188 76.6149 166.91 76.7904 166.587 76.9316C166.268 77.0684 165.908 77.1367 165.507 77.1367C165.006 77.1367 164.566 77.0387 164.188 76.8428C163.814 76.6468 163.522 76.3848 163.312 76.0566C163.107 75.724 163.005 75.3525 163.005 74.9424C163.005 74.5459 163.082 74.1973 163.237 73.8965C163.392 73.5911 163.616 73.3382 163.907 73.1377C164.199 72.9326 164.55 72.7777 164.96 72.6729C165.37 72.568 165.828 72.5156 166.334 72.5156H167.804ZM170.832 66.5H172.104V75.5645L171.994 77H170.832V66.5ZM177.101 73.2402V73.3838C177.101 73.9215 177.037 74.4206 176.909 74.8809C176.782 75.3366 176.595 75.7331 176.349 76.0703C176.103 76.4076 175.802 76.6696 175.446 76.8564C175.091 77.0433 174.683 77.1367 174.223 77.1367C173.753 77.1367 173.341 77.057 172.985 76.8975C172.634 76.7334 172.338 76.4987 172.097 76.1934C171.855 75.888 171.661 75.5189 171.516 75.0859C171.374 74.653 171.276 74.1654 171.222 73.623V72.9941C171.276 72.4473 171.374 71.9574 171.516 71.5244C171.661 71.0915 171.855 70.7223 172.097 70.417C172.338 70.1071 172.634 69.8724 172.985 69.7129C173.336 69.5488 173.744 69.4668 174.209 69.4668C174.674 69.4668 175.086 69.5579 175.446 69.7402C175.806 69.918 176.107 70.1732 176.349 70.5059C176.595 70.8385 176.782 71.2373 176.909 71.7021C177.037 72.1624 177.101 72.6751 177.101 73.2402ZM175.829 73.3838V73.2402C175.829 72.8711 175.795 72.5247 175.727 72.2012C175.658 71.873 175.549 71.5859 175.398 71.3398C175.248 71.0892 175.05 70.8932 174.804 70.752C174.558 70.6061 174.255 70.5332 173.895 70.5332C173.576 70.5332 173.298 70.5879 173.061 70.6973C172.828 70.8066 172.63 70.9548 172.466 71.1416C172.302 71.3239 172.167 71.5335 172.062 71.7705C171.962 72.0029 171.887 72.2445 171.837 72.4951V74.1426C171.91 74.4616 172.028 74.7692 172.192 75.0654C172.361 75.3571 172.584 75.5964 172.862 75.7832C173.145 75.9701 173.493 76.0635 173.908 76.0635C174.25 76.0635 174.542 75.9951 174.783 75.8584C175.029 75.7171 175.228 75.5234 175.378 75.2773C175.533 75.0312 175.647 74.7464 175.72 74.4229C175.793 74.0993 175.829 73.7529 175.829 73.3838ZM180.074 66.5V77H178.803V66.5H180.074ZM185.174 77.1367C184.659 77.1367 184.192 77.0501 183.772 76.877C183.358 76.6992 183 76.4508 182.699 76.1318C182.403 75.8128 182.175 75.4346 182.016 74.9971C181.856 74.5596 181.776 74.0811 181.776 73.5615V73.2744C181.776 72.6729 181.865 72.1374 182.043 71.668C182.221 71.194 182.462 70.793 182.768 70.4648C183.073 70.1367 183.419 69.8883 183.807 69.7197C184.194 69.5511 184.595 69.4668 185.01 69.4668C185.538 69.4668 185.994 69.5579 186.377 69.7402C186.764 69.9225 187.081 70.1777 187.327 70.5059C187.573 70.8294 187.756 71.2122 187.874 71.6543C187.993 72.0918 188.052 72.5703 188.052 73.0898V73.6572H182.528V72.625H186.787V72.5293C186.769 72.2012 186.701 71.8822 186.582 71.5723C186.468 71.2624 186.286 71.0072 186.035 70.8066C185.785 70.6061 185.443 70.5059 185.01 70.5059C184.723 70.5059 184.458 70.5674 184.217 70.6904C183.975 70.8089 183.768 70.9867 183.595 71.2236C183.422 71.4606 183.287 71.75 183.191 72.0918C183.096 72.4336 183.048 72.8278 183.048 73.2744V73.5615C183.048 73.9124 183.096 74.2428 183.191 74.5527C183.292 74.8581 183.435 75.127 183.622 75.3594C183.813 75.5918 184.044 75.7741 184.312 75.9062C184.586 76.0384 184.896 76.1045 185.242 76.1045C185.689 76.1045 186.067 76.0133 186.377 75.8311C186.687 75.6488 186.958 75.4049 187.19 75.0996L187.956 75.708C187.797 75.9495 187.594 76.1797 187.348 76.3984C187.102 76.6172 186.799 76.7949 186.438 76.9316C186.083 77.0684 185.661 77.1367 185.174 77.1367Z" fill="#0FA3B1"/>
</svg>
